<svg xmlns="http://www.w3.org/2000/svg" xmlns:xlink="http://www.w3.org/1999/xlink" version="1.1" x="0px" y="0px" viewBox="0 0 100 125" enable-background="new 0 0 100 100" xml:space="preserve"><g><path fill="none" stroke="#000000" stroke-width="2" stroke-miterlimit="10" d="M68.5,15.6v-5.3h-5.3V5h-5.4v5.3H42.1V5h-5.3v5.3   h-5.3v5.3h5.3v5.3h-5.3v5.3h5.3v5.3h-5.3v5.3h5.3v5.3h-5.3v5.3h5.3v5.3h-5.3v5.3h5.3v5.3h-5.3v5.3h5.3v5.3h-5.3v5.3h5.3v5.3h-5.3   v5.3h5.3V95h5.3v-5.3h15.8V95h5.4v-5.3h5.3v-5.3h-5.3v-5.3h5.3v-5.3h-5.3v-5.3h5.3v-5.3h-5.3v-5.3h5.3v-5.3h-5.3v-5.3h5.3v-5.3   h-5.3v-5.3h5.3v-5.3h-5.3v-5.3h5.3v-5.3h-5.3v-5.3H68.5z M42.1,15.6h15.8v5.3H42.1V15.6z M42.1,26.2h15.8v5.3H42.1V26.2z    M42.1,36.8h15.8v5.3H42.1V36.8z M57.9,84.4H42.1v-5.3h15.8V84.4z M57.9,73.8H42.1v-5.3h15.8V73.8z M57.9,63.2H42.1v-5.3h15.8V63.2   z M57.9,52.6H42.1v-5.3h15.8V52.6z"/></g><text x="0" y="115" fill="#000000" font-size="5px" font-weight="bold" font-family="'Helvetica Neue', Helvetica, Arial-Unicode, Arial, Sans-serif">Created by Guilhem</text><text x="0" y="120" fill="#000000" font-size="5px" font-weight="bold" font-family="'Helvetica Neue', Helvetica, Arial-Unicode, Arial, Sans-serif">from the Noun Project</text></svg>