<svg xmlns="http://www.w3.org/2000/svg" xmlns:xlink="http://www.w3.org/1999/xlink" version="1.1" x="0px" y="0px" viewBox="0 0 100 125" enable-background="new 0 0 100 100" xml:space="preserve"><g><path d="M77.658,56.685c-4.722,0-8.562,3.842-8.562,8.564c0,4.722,3.841,8.563,8.562,8.563c4.724,0,8.565-3.842,8.565-8.563   C86.224,60.526,82.382,56.685,77.658,56.685 M77.658,71.833c-3.63,0-6.583-2.954-6.583-6.584s2.953-6.584,6.583-6.584   c3.631,0,6.584,2.954,6.584,6.584S81.289,71.833,77.658,71.833 M23.739,56.685c-4.722,0-8.564,3.842-8.564,8.564   c0,4.722,3.842,8.563,8.564,8.563c4.722,0,8.564-3.842,8.564-8.563C32.303,60.526,28.461,56.685,23.739,56.685 M23.739,71.833   c-3.631,0-6.584-2.954-6.584-6.584s2.953-6.584,6.584-6.584c3.63,0,6.583,2.954,6.583,6.584S27.37,71.833,23.739,71.833    M91.237,56.685h-0.932c-0.119-1.658-0.346-3.225-0.725-4.554c-1.099-3.859-1.604-4.347-4.457-6.627   c-0.86-0.688-1.933-1.544-3.338-2.761c-3.163-2.74-13.669-9.976-17.727-11.835c-3.661-1.678-7.37-2.806-10.816-3.561   c-0.41-2.295-2.454-5.902-7.397-5.902h-5.104c-3.28,0-6.014,2.554-6.61,4.624c-5.393,0.47-9.796,2.202-13.386,5.266   c-4.446,3.795-7.663,9.631-9.838,17.843c-0.591,2.232-0.94,4.268-1.117,6.121H8.762C6.688,55.299,5,56.986,5,59.061v6.608   c0,2.075,1.687,3.763,3.762,3.763h3.688h0.239c0.308,0,0.598-0.143,0.786-0.387c0.187-0.244,0.25-0.562,0.171-0.859   c-0.233-0.872-0.378-1.998-0.378-2.937c0-5.773,4.697-10.472,10.471-10.472c5.773,0,10.47,4.698,10.47,10.472   c0,0.844-0.16,1.969-0.42,2.937c-0.079,0.297-0.016,0.614,0.171,0.858c0.188,0.245,0.478,0.388,0.786,0.388h31.887   c0.308,0,0.598-0.143,0.785-0.387c0.188-0.245,0.25-0.562,0.172-0.859c-0.248-0.927-0.402-2.052-0.402-2.937   c0-5.773,4.697-10.472,10.47-10.472c5.774,0,10.472,4.698,10.472,10.472c0,0.855-0.158,1.953-0.423,2.935   c-0.08,0.298-0.017,0.615,0.17,0.86c0.188,0.244,0.479,0.388,0.786,0.388h0.261c0.087,0,0.17-0.015,0.251-0.036   c0.081,0.021,0.164,0.036,0.251,0.036h1.812c2.075,0,3.763-1.688,3.763-3.763v-5.223C95,58.373,93.312,56.685,91.237,56.685    M40.742,23.425h5.104c3.297,0,4.708,2.025,5.231,3.488c-7.454-1.357-13.249-1.021-13.868-0.98   c-0.292,0.001-0.578,0.009-0.865,0.015C37.022,24.863,38.627,23.425,40.742,23.425 M37.245,27.914c0.023,0,0.047-0.001,0.07-0.003   c0.133-0.01,13.531-0.88,25.92,4.797c3.357,1.538,12.521,7.704,16.448,10.861L60.18,41.903c-0.449-1.461-1.577-5.094-2.389-7.423   c-1.064-3.058-3.349-4.394-6.436-3.762c-0.779,0.16-1.403,0.584-1.803,1.225c-0.831,1.333-0.425,3.175-0.349,3.482l1.187,5.641   l-14.684-1.254c-0.235-0.746-0.931-2.93-1.767-5.332c-1.066-3.058-3.351-4.394-6.437-3.762c-0.779,0.16-1.402,0.584-1.803,1.225   c-0.819,1.313-0.437,3.12-0.352,3.467l0.647,3.572l-8.52-0.728C21.867,31.177,28.25,27.914,37.245,27.914 M58.051,41.721   l-5.6-0.479l-1.313-6.244c-0.002-0.012-0.006-0.028-0.01-0.04c-0.084-0.334-0.243-1.412,0.106-1.969   c0.075-0.12,0.202-0.266,0.519-0.331c2.105-0.432,3.431,0.354,4.169,2.474C56.605,37.095,57.521,40.008,58.051,41.721    M33.57,39.629l-5.532-0.473l-0.748-4.131c-0.005-0.023-0.01-0.047-0.016-0.07c-0.107-0.415-0.222-1.439,0.105-1.964   c0.076-0.121,0.203-0.268,0.521-0.333c2.105-0.432,3.43,0.354,4.169,2.474C32.695,36.929,33.241,38.602,33.57,39.629 M8.762,67.452   c-0.983,0-1.782-0.801-1.782-1.783v-6.608c0-0.981,0.799-1.782,1.782-1.782h0.898c-0.159,4.641,0.761,7.965,1.446,10.174H8.762z    M65.208,65.249c0,0.678,0.071,1.447,0.199,2.203h-29.43c0.136-0.772,0.213-1.545,0.213-2.203c0-6.866-5.586-12.451-12.451-12.451   c-5.851,0-10.772,4.057-12.099,9.505c-0.518-2.014-0.677-3.444-0.498-5.166c0.29-0.173,0.486-0.486,0.486-0.848   c0-0.258-0.1-0.489-0.261-0.665c0.285-1.519,0.772-3.359,1.455-5.939c0.477-1.801,1.006-3.482,1.587-5.047l56.766,9.987   C67.6,56.814,65.208,60.758,65.208,65.249 M77.658,52.798c-1.086,0-2.139,0.141-3.144,0.403L15.157,42.759   c0.39-0.915,0.802-1.785,1.235-2.611l65.926,5.634c0.594,0.489,1.112,0.903,1.57,1.269c2.562,2.048,2.831,2.262,3.789,5.622   c0.498,1.75,0.702,4.016,0.744,6.321C86.262,55.292,82.246,52.798,77.658,52.798 M93.02,65.669c0,0.982-0.799,1.783-1.782,1.783   h-1.216c0.236-2.431,0.455-5.661,0.377-8.787h0.839c0.983,0,1.782,0.8,1.782,1.781V65.669z M39.554,61.973   c0-0.547,0.443-0.99,0.99-0.99h20.45c0.547,0,0.99,0.443,0.99,0.99s-0.443,0.99-0.99,0.99h-20.45   C39.998,62.963,39.554,62.52,39.554,61.973"/></g><text x="0" y="115" fill="#000000" font-size="5px" font-weight="bold" font-family="'Helvetica Neue', Helvetica, Arial-Unicode, Arial, Sans-serif">Created by Mike Chum</text><text x="0" y="120" fill="#000000" font-size="5px" font-weight="bold" font-family="'Helvetica Neue', Helvetica, Arial-Unicode, Arial, Sans-serif">from the Noun Project</text></svg>