<svg xmlns="http://www.w3.org/2000/svg" xmlns:xlink="http://www.w3.org/1999/xlink" version="1.1" x="0px" y="0px" viewBox="0 0 100 125" enable-background="new 0 0 100 100" xml:space="preserve"><g><path d="M97.1,57.6c-10.4,0-22.7-23-22.8-23.2c-0.1-0.3-0.4-0.4-0.7-0.4c-0.3,0-0.6,0.1-0.7,0.4   c-0.1,0.2-12.3,20-22.8,20c-10.5,0-22.7-19.8-22.8-20c-0.2-0.3-0.4-0.4-0.7-0.4c-0.3,0-0.6,0.2-0.7,0.4   c-0.1,0.2-12.4,23.2-22.8,23.2c-0.5,0-0.8,0.4-0.8,0.8s0.4,0.8,0.8,0.8h22.7v5.9c0,0.5,0.4,0.8,0.8,0.8s0.8-0.4,0.8-0.8v-5.9h45.4   v5.9c0,0.5,0.4,0.8,0.8,0.8s0.8-0.4,0.8-0.8v-5.9h22.7c0.5,0,0.8-0.4,0.8-0.8S97.5,57.6,97.1,57.6z M10.3,57.6H8.6   c0.6-0.3,1.1-0.7,1.7-1.1V57.6z M15.5,57.6h-4.2v-1.8c1.5-1.1,2.9-2.5,4.2-3.9V57.6z M16.5,57.6v-6.8c1.5-1.7,2.9-3.5,4.2-5.3v12.1   H16.5z M25.6,57.6h-3.9V44.1c1.6-2.3,2.9-4.5,3.9-6.1V57.6z M31.2,57.6h-3.9v-20c0.9,1.4,2.3,3.3,3.9,5.3V57.6z M36.4,57.6h-4.2   V44.1c1.3,1.5,2.7,3.1,4.2,4.6V57.6z M41.7,57.6h-4.2v-8c1.4,1.2,2.8,2.4,4.2,3.4V57.6z M46.9,57.6h-4.2v-4   c1.4,0.8,2.8,1.5,4.2,1.9V57.6z M52.1,57.6h-4.2v-1.8C48.6,56,49.3,56,50,56c0.7,0,1.4-0.1,2.1-0.2V57.6z M57.3,57.6h-4.2v-2   c1.4-0.4,2.8-1.1,4.2-1.9V57.6z M62.6,57.6h-4.2V53c1.5-1,2.9-2.1,4.2-3.4V57.6z M67.8,57.6h-4.2v-8.9c1.5-1.5,2.9-3.1,4.2-4.6   V57.6z M72.7,57.6h-3.9V42.9c1.6-2,2.9-3.9,3.9-5.3V57.6z M78.3,57.6h-3.9V38c0.9,1.6,2.3,3.8,3.9,6.1V57.6z M83.5,57.6h-4.2V45.5   c1.3,1.8,2.7,3.6,4.2,5.3V57.6z M88.7,57.6h-4.2v-5.7c1.4,1.4,2.8,2.8,4.2,3.9V57.6z M89.7,57.6v-1.1c0.6,0.4,1.1,0.8,1.7,1.1H89.7   z"/></g><text x="0" y="115" fill="#000000" font-size="5px" font-weight="bold" font-family="'Helvetica Neue', Helvetica, Arial-Unicode, Arial, Sans-serif">Created by John Winowiecki</text><text x="0" y="120" fill="#000000" font-size="5px" font-weight="bold" font-family="'Helvetica Neue', Helvetica, Arial-Unicode, Arial, Sans-serif">from the Noun Project</text></svg>