<svg xmlns="http://www.w3.org/2000/svg" xmlns:xlink="http://www.w3.org/1999/xlink" version="1.1" x="0px" y="0px" viewBox="0 0 48 60" style="enable-background:new 0 0 48 48;" xml:space="preserve"><path d="M23.1733398,11.8764648C23.4384766,11.9492188,23.7124023,12,24,12c1.7460938,0,3.1669922-1.4208984,3.1669922-3.1669922  S25.7460938,5.6660156,24,5.6660156s-3.1669922,1.4208984-3.1669922,3.1669922c0,0.1513672,0.0239258,0.2963867,0.0449219,0.4423828  l-9.8056641,4.9033203c-0.5737305-0.5742188-1.3657227-0.9296875-2.2392578-0.9296875  c-1.7460938,0-3.1669922,1.4208984-3.1669922,3.1669922s1.4208984,3.1669922,3.1669922,3.1669922  c0.2880859,0,0.5620117-0.0512695,0.8271484-0.1235352L12.6870117,24l-3.0263672,4.5400391  c-0.265625-0.0732422-0.5395508-0.1240234-0.8276367-0.1240234c-1.7460938,0-3.1669922,1.4208984-3.1669922,3.1669922  S7.0869141,34.75,8.8330078,34.75c0.8730469,0,1.6650391-0.3554688,2.2382812-0.9287109l9.8066406,4.9033203  c-0.0209961,0.1455078-0.0449219,0.2910156-0.0449219,0.4423828c0,1.7460938,1.4208984,3.1669922,3.1669922,3.1669922  s3.1669922-1.4208984,3.1669922-3.1669922S25.7460938,36,24,36c-0.2880859,0-0.5615234,0.0507812-0.8271484,0.1230469  l-5.2958984-7.9433594l3.8837891-1.9423828C22.3344727,26.8115234,23.1264648,27.1669922,24,27.1669922  c1.7460938,0,3.1669922-1.4208984,3.1669922-3.1669922S25.7460938,20.8330078,24,20.8330078  c-0.8730469,0-1.6650391,0.3554688-2.2382812,0.9291992l-3.8842773-1.9423828L23.1733398,11.8764648z M24,7.6660156  c0.6435547,0,1.1669922,0.5234375,1.1669922,1.1669922S24.6435547,10,24,10s-1.1669922-0.5234375-1.1669922-1.1669922  S23.3564453,7.6660156,24,7.6660156z M21.0805664,11.4106445L16.074707,18.918457l-4.1196289-2.0600586  C11.9760742,16.7124023,12,16.5673828,12,16.4160156s-0.0239258-0.2963867-0.0449219-0.4423828L21.0805664,11.4106445z   M7.6660156,16.4160156c0-0.6435547,0.5234375-1.1669922,1.1669922-1.1669922S10,15.7724609,10,16.4160156  s-0.5234375,1.1669922-1.1669922,1.1669922S7.6660156,17.0595703,7.6660156,16.4160156z M11.7539062,18.9941406l3.2026367,1.6015625  l-1.0673828,1.6015625L11.7539062,18.9941406z M13.8891602,25.8027344l1.0668945,1.6005859l-3.2021484,1.6015625  L13.8891602,25.8027344z M8.8330078,32.75c-0.6435547,0-1.1669922-0.5234375-1.1669922-1.1669922  s0.5234375-1.1669922,1.1669922-1.1669922S10,30.9394531,10,31.5830078S9.4765625,32.75,8.8330078,32.75z M25.1669922,39.1669922  c0,0.6435547-0.5234375,1.1669922-1.1669922,1.1669922s-1.1669922-0.5234375-1.1669922-1.1669922S23.3564453,38,24,38  S25.1669922,38.5234375,25.1669922,39.1669922z M21.0795898,36.5888672l-9.1245117-4.5625  C11.9760742,31.8798828,12,31.734375,12,31.5830078s-0.0239258-0.296875-0.0449219-0.4423828l4.1191406-2.0595703  L21.0795898,36.5888672z M24,22.8330078c0.6435547,0,1.1669922,0.5234375,1.1669922,1.1669922S24.6435547,25.1669922,24,25.1669922  S22.8330078,24.6435547,22.8330078,24S23.3564453,22.8330078,24,22.8330078z M20.8779297,23.5566406  C20.8569336,23.7026367,20.8330078,23.8481445,20.8330078,24c0,0.1513672,0.0239258,0.2963867,0.0449219,0.4423828  l-4.1191406,2.0595703L15.0908203,24l1.668457-2.5029297L20.8779297,23.5566406z M39.1669922,28.4160156  C37.4208984,28.4160156,36,29.8369141,36,31.5830078S37.4208984,34.75,39.1669922,34.75s3.1669922-1.4208984,3.1669922-3.1669922  S40.9130859,28.4160156,39.1669922,28.4160156z M39.1669922,32.75C38.5234375,32.75,38,32.2265625,38,31.5830078  s0.5234375-1.1669922,1.1669922-1.1669922s1.1669922,0.5234375,1.1669922,1.1669922S39.8105469,32.75,39.1669922,32.75z   M39.1669922,19.5830078c1.7460938,0,3.1669922-1.4208984,3.1669922-3.1669922s-1.4208984-3.1669922-3.1669922-3.1669922  S36,14.6699219,36,16.4160156S37.4208984,19.5830078,39.1669922,19.5830078z M39.1669922,15.2490234  c0.6435547,0,1.1669922,0.5234375,1.1669922,1.1669922s-0.5234375,1.1669922-1.1669922,1.1669922S38,17.0595703,38,16.4160156  S38.5234375,15.2490234,39.1669922,15.2490234z"/><text x="0" y="63" fill="#000000" font-size="5px" font-weight="bold" font-family="'Helvetica Neue', Helvetica, Arial-Unicode, Arial, Sans-serif">Created by Knut M. Synstad</text><text x="0" y="68" fill="#000000" font-size="5px" font-weight="bold" font-family="'Helvetica Neue', Helvetica, Arial-Unicode, Arial, Sans-serif">from the Noun Project</text></svg>