<svg xmlns="http://www.w3.org/2000/svg" xmlns:xlink="http://www.w3.org/1999/xlink" version="1.1" x="0px" y="0px" viewBox="0 0 100 100" style="enable-background:new 0 0 100 100;" xml:space="preserve"><path d="M96.8,53v-0.8c-1.7,0-7.2-0.5-12.4-2.7c-6.1-2.6-9.3-6.6-9.6-11.8v-0.9h0h-0.9h0v0.9c-0.3,5.2-3.6,9.2-9.6,11.8  c-5.1,2.2-10.7,2.7-12.4,2.7c-1.7,0-7.2-0.5-12.4-2.7c-6.1-2.6-9.3-6.6-9.6-11.8v-0.9h0h-0.9h0v0.9c-0.3,5.2-3.6,9.2-9.6,11.8  c-5.1,2.2-10.7,2.7-12.4,2.7V53c0.3,0,0.8,0,1.3-0.1V57H6.8v1.1h21.4v5.6h-0.7V65h3.6v-1.3h-0.7v-5.6h42.7v5.6h-0.7V65h3.6v-1.3  h-0.7v-5.6h21.4V57h-1.5v-4.1C96,52.9,96.5,53,96.8,53z M11.9,57h-3v-4.2c0.9-0.1,1.9-0.2,3-0.4V57z M15.2,57h-2.7v-4.7  c0.9-0.2,1.8-0.4,2.7-0.6V57z M18.6,57h-2.7v-5.5c0.9-0.3,1.8-0.6,2.7-0.9V57z M21.9,57h-2.7v-6.7c0.2-0.1,0.3-0.1,0.5-0.2  c0.8-0.3,1.5-0.7,2.3-1.1V57z M25.3,57h-2.7v-8.3c1-0.6,1.9-1.3,2.7-2V57z M28.6,48.7h-0.2v7.3h-0.2V57h-2.3V46.2  c1.2-1.2,2.1-2.4,2.7-3.8V43v1.6V48.7z M32.6,57h-2.1v-1.1h-0.2v-7.3h-0.2V43h0v-0.7c0.6,1.3,1.5,2.5,2.5,3.6V57z M35.9,57h-2.7  V46.5c0.8,0.7,1.7,1.4,2.7,2V57z M39.5,57h-2.9V49c0.8,0.4,1.6,0.8,2.5,1.2c0.1,0.1,0.3,0.1,0.4,0.2V57z M43.1,57h-3v-6.4  c1,0.4,2,0.7,3,1V57z M46.5,57h-2.8v-5.3c1,0.3,1.9,0.5,2.8,0.6V57z M49.9,57h-2.8v-4.6c1,0.2,2,0.3,2.8,0.4V57z M53.5,57h-3v-4.1  c0.5,0,1,0.1,1.3,0.1c0.4,0,0.9,0,1.7-0.1V57z M56.9,57h-2.7v-4.2c0.8-0.1,1.7-0.2,2.7-0.4V57z M60.2,57h-2.7v-4.7  c0.9-0.2,1.8-0.4,2.7-0.6V57z M63.6,57h-2.7v-5.5c0.9-0.3,1.8-0.6,2.7-0.9V57z M66.9,57h-2.7v-6.7c0.2-0.1,0.3-0.1,0.5-0.2  c0.8-0.3,1.5-0.7,2.3-1.1V57z M70.3,57h-2.7v-8.3c1-0.6,1.9-1.3,2.7-2V57z M73.6,48.7h-0.2v7.3h-0.2V57h-2.3V46.2  c1.2-1.2,2.1-2.4,2.7-3.8V43v1.6V48.7z M77.6,57h-2.1v-1.1h-0.2v-7.3h-0.2V43h0v-0.7c0.6,1.3,1.5,2.5,2.5,3.6V57z M80.9,57h-2.7  V46.5c0.8,0.7,1.7,1.4,2.7,2V57z M84.5,57h-2.9V49c0.8,0.4,1.6,0.8,2.5,1.2c0.1,0.1,0.3,0.1,0.4,0.2V57z M87.8,57h-2.7v-6.4  c0.9,0.3,1.8,0.6,2.7,0.9V57z M91.4,57h-2.9v-5.3c1,0.3,2,0.5,2.9,0.7V57z M94.7,57H92v-4.6c1,0.2,1.9,0.3,2.7,0.4V57z"></path></svg>